<svg width="70" height="70" viewBox="0 0 70 70" fill="none" xmlns="http://www.w3.org/2000/svg">
<path d="M5.79688 70H60.6307C62.1168 69.9983 63.5416 69.4072 64.5925 68.3563C65.6433 67.3054 66.2344 65.8807 66.2361 64.3945V52.8478H66.9375C67.6987 52.8469 68.4285 52.5442 68.9667 52.0059C69.505 51.4677 69.8077 50.7379 69.8086 49.9767V36.6349C69.8077 35.8737 69.505 35.1439 68.9667 34.6057C68.4285 34.0674 67.6987 33.7646 66.9375 33.7638H66.237V22.2168C66.2353 20.7306 65.6441 19.3059 64.5933 18.255C63.5424 17.2041 62.1176 16.613 60.6315 16.6113H57.3666L53.6108 2.59654C53.3695 1.6997 52.7822 0.935221 51.9779 0.470838C51.1735 0.00645486 50.2178 -0.119907 49.3205 0.119475L7.51105 11.3222C6.61421 11.5638 5.84979 12.1512 5.38541 12.9557C4.92103 13.7601 4.7946 14.7158 5.03385 15.6133L5.30728 16.6348C3.91168 16.7588 2.6129 17.4002 1.66623 18.4331C0.71957 19.466 0.193492 20.8157 0.191406 22.2168V64.3945C0.193107 65.8807 0.784228 67.3054 1.83509 68.3563C2.88595 69.4072 4.31073 69.9983 5.79688 70ZM68.168 36.6349V49.9767C68.1676 50.3029 68.0378 50.6157 67.8072 50.8464C67.5765 51.0771 67.2637 51.2068 66.9375 51.2072H53.9671C51.8716 51.2072 49.8618 50.3747 48.38 48.8929C46.8982 47.4111 46.0657 45.4014 46.0657 43.3058C46.0657 41.2102 46.8982 39.2005 48.38 37.7187C49.8618 36.2369 51.8716 35.4044 53.9671 35.4044H66.9375C67.2637 35.4048 67.5765 35.5346 67.8071 35.7652C68.0378 35.9959 68.1676 36.3086 68.168 36.6349ZM55.6678 16.6113H30.4724L53.98 10.3128L55.6678 16.6113ZM6.80641 13.7758C6.92784 13.5635 7.09016 13.3774 7.28397 13.2283C7.47779 13.0791 7.69926 12.9699 7.93557 12.9069L49.745 1.70404C50.2222 1.57691 50.7303 1.64421 51.158 1.89117C51.5856 2.13814 51.8979 2.54461 52.0263 3.02147L53.5553 8.72811L24.1337 16.6113H7L6.61855 15.1881C6.55496 14.9519 6.53881 14.7055 6.57105 14.4631C6.6033 14.2207 6.68329 13.9871 6.80641 13.7758ZM1.83203 22.2168C1.83326 21.1656 2.25138 20.1579 2.99467 19.4146C3.73795 18.6713 4.74571 18.2532 5.79688 18.2519H60.6307C61.6818 18.2532 62.6896 18.6713 63.4329 19.4146C64.1762 20.1579 64.5943 21.1656 64.5955 22.2168V33.7635H53.9671C51.4364 33.7635 49.0094 34.7688 47.2199 36.5583C45.4304 38.3478 44.4251 40.7748 44.4251 43.3055C44.4251 45.8362 45.4304 48.2633 47.2199 50.0527C49.0094 51.8422 51.4364 52.8475 53.9671 52.8475H64.5959V64.3945C64.5947 65.4457 64.1766 66.4535 63.4333 67.1968C62.69 67.9401 61.6823 68.3582 60.6311 68.3594H5.79688C4.7457 68.3582 3.73792 67.9401 2.99463 67.1968C2.25133 66.4535 1.83323 65.4457 1.83203 64.3945V22.2168ZM62.6172 46.9035C63.3288 46.9035 64.0243 46.6925 64.616 46.2971C65.2076 45.9018 65.6687 45.3399 65.941 44.6825C66.2133 44.0251 66.2845 43.3017 66.1457 42.6038C66.0068 41.9059 65.6642 41.2649 65.161 40.7617C64.6578 40.2586 64.0168 39.916 63.3189 39.7771C62.621 39.6383 61.8976 39.7096 61.2402 39.9819C60.5828 40.2542 60.0209 40.7154 59.6256 41.307C59.2303 41.8986 59.0193 42.5942 59.0193 43.3058C59.0203 44.2597 59.3998 45.1742 60.0743 45.8487C60.7488 46.5232 61.6633 46.9025 62.6172 46.9035ZM62.6172 41.3487C63.0043 41.3487 63.3826 41.4635 63.7045 41.6786C64.0263 41.8936 64.2771 42.1993 64.4252 42.5569C64.5733 42.9145 64.6121 43.308 64.5366 43.6877C64.461 44.0673 64.2746 44.416 64.0009 44.6897C63.7272 44.9634 63.3785 45.1498 62.9988 45.2253C62.6192 45.3008 62.2257 45.2621 61.8681 45.1139C61.5104 44.9658 61.2048 44.7149 60.9897 44.3931C60.7747 44.0712 60.6599 43.6929 60.6599 43.3058C60.6605 42.7869 60.867 42.2894 61.2339 41.9225C61.6008 41.5556 62.0983 41.3492 62.6172 41.3487ZM11.1426 59.9424C11.1426 59.7248 11.229 59.5162 11.3828 59.3624C11.5367 59.2085 11.7453 59.1221 11.9629 59.1221H31.1035C31.3211 59.1221 31.5297 59.2085 31.6836 59.3624C31.8374 59.5162 31.9238 59.7248 31.9238 59.9424C31.9238 60.16 31.8374 60.3686 31.6836 60.5225C31.5297 60.6763 31.3211 60.7627 31.1035 60.7627H11.9629C11.8551 60.7628 11.7483 60.7417 11.6487 60.7006C11.5491 60.6594 11.4585 60.599 11.3823 60.5228C11.306 60.4467 11.2455 60.3562 11.2042 60.2566C11.1629 60.1571 11.1416 60.0503 11.1416 59.9425L11.1426 59.9424Z" fill="white"/>
</svg>
