<svg width="87" height="20" viewBox="0 0 87 20" fill="none" xmlns="http://www.w3.org/2000/svg">
<path d="M9.44071 1.71033C9.58526 1.26544 10.2147 1.26544 10.3592 1.71033L11.9057 6.46981C11.9703 6.66877 12.1557 6.80348 12.3649 6.80348H17.3693C17.8371 6.80348 18.0316 7.40208 17.6532 7.67704L13.6045 10.6186C13.4353 10.7415 13.3645 10.9595 13.4291 11.1585L14.9756 15.9179C15.1201 16.3628 14.6109 16.7328 14.2325 16.4578L10.1838 13.5163C10.0146 13.3933 9.78538 13.3933 9.61613 13.5163L5.56748 16.4578C5.18903 16.7328 4.67982 16.3628 4.82438 15.9179L6.37083 11.1585C6.43547 10.9595 6.36465 10.7415 6.1954 10.6186L2.14675 7.67704C1.7683 7.40208 1.9628 6.80348 2.43059 6.80348H7.435C7.6442 6.80348 7.82961 6.66877 7.89426 6.46981L9.44071 1.71033Z" fill="#C1AE05"/>
<path d="M26.342 1.71033C26.4865 1.26544 27.1159 1.26544 27.2605 1.71033L28.8069 6.46981C28.8716 6.66877 29.057 6.80348 29.2662 6.80348H34.2706C34.7384 6.80348 34.9329 7.40208 34.5544 7.67704L30.5058 10.6186C30.3365 10.7415 30.2657 10.9595 30.3304 11.1585L31.8768 15.9179C32.0214 16.3628 31.5122 16.7328 31.1337 16.4578L27.085 13.5163C26.9158 13.3933 26.6866 13.3933 26.5174 13.5163L22.4687 16.4578C22.0903 16.7328 21.5811 16.3628 21.7256 15.9179L23.2721 11.1585C23.3367 10.9595 23.2659 10.7415 23.0966 10.6186L19.048 7.67704C18.6695 7.40208 18.864 6.80348 19.3318 6.80348H24.3362C24.5454 6.80348 24.7309 6.66877 24.7955 6.46981L26.342 1.71033Z" fill="#C1AE05"/>
<path d="M43.2434 1.71033C43.388 1.26544 44.0174 1.26544 44.162 1.71033L45.7084 6.46981C45.7731 6.66877 45.9585 6.80348 46.1677 6.80348H51.1721C51.6399 6.80348 51.8344 7.40208 51.4559 7.67704L47.4073 10.6186C47.238 10.7415 47.1672 10.9595 47.2318 11.1585L48.7783 15.9179C48.9228 16.3628 48.4136 16.7328 48.0352 16.4578L43.9865 13.5163C43.8173 13.3933 43.5881 13.3933 43.4189 13.5163L39.3702 16.4578C38.9918 16.7328 38.4826 16.3628 38.6271 15.9179L40.1736 11.1585C40.2382 10.9595 40.1674 10.7415 39.9981 10.6186L35.9495 7.67704C35.571 7.40208 35.7655 6.80348 36.2333 6.80348H41.2377C41.4469 6.80348 41.6323 6.66877 41.697 6.46981L43.2434 1.71033Z" fill="#C1AE05"/>
<path d="M60.1446 1.71033C60.2891 1.26544 60.9185 1.26544 61.0631 1.71033L62.6095 6.46981C62.6742 6.66877 62.8596 6.80348 63.0688 6.80348H68.0732C68.541 6.80348 68.7355 7.40208 68.357 7.67704L64.3084 10.6186C64.1391 10.7415 64.0683 10.9595 64.133 11.1585L65.6794 15.9179C65.824 16.3628 65.3148 16.7328 64.9363 16.4578L60.8877 13.5163C60.7184 13.3933 60.4892 13.3933 60.32 13.5163L56.2713 16.4578C55.8929 16.7328 55.3837 16.3628 55.5282 15.9179L57.0747 11.1585C57.1393 10.9595 57.0685 10.7415 56.8993 10.6186L52.8506 7.67704C52.4722 7.40208 52.6667 6.80348 53.1344 6.80348H58.1389C58.3481 6.80348 58.5335 6.66877 58.5981 6.46981L60.1446 1.71033Z" fill="#C1AE05"/>
<path d="M77.0462 1.71033C77.1907 1.26544 77.8201 1.26544 77.9647 1.71033L79.5111 6.46981C79.5758 6.66877 79.7612 6.80348 79.9704 6.80348H84.9748C85.4426 6.80348 85.6371 7.40208 85.2586 7.67704L81.21 10.6186C81.0407 10.7415 80.9699 10.9595 81.0346 11.1585L82.581 15.9179C82.7256 16.3628 82.2164 16.7328 81.8379 16.4578L77.7893 13.5163C77.62 13.3933 77.3908 13.3933 77.2216 13.5163L73.1729 16.4578C72.7945 16.7328 72.2853 16.3628 72.4298 15.9179L73.9763 11.1585C74.0409 10.9595 73.9701 10.7415 73.8009 10.6186L69.7522 7.67704C69.3738 7.40208 69.5683 6.80348 70.0361 6.80348H75.0405C75.2497 6.80348 75.4351 6.66877 75.4997 6.46981L77.0462 1.71033Z" fill="#C1AE05"/>
</svg>
