<svg width="177" height="54" viewBox="0 0 177 54" fill="none" xmlns="http://www.w3.org/2000/svg">
<path d="M158.892 20.1831C148.894 20.1831 140.783 27.5679 140.783 36.6693C140.783 45.7706 148.894 53.1554 158.892 53.1554C168.889 53.1554 177 45.7706 177 36.6693C177 27.5679 168.889 20.1831 158.892 20.1831ZM158.901 48.5529C151.158 48.5529 145.829 43.7806 145.829 36.7353C145.829 29.69 151.158 24.9177 158.901 24.9177C166.644 24.9177 171.973 29.69 171.973 36.7353C171.973 43.7806 166.644 48.5529 158.901 48.5529Z" fill="#FBF6EF"/>
<path d="M34.4059 20.1833C34.3965 20.4002 34.3682 20.6171 34.3682 20.834C34.3682 31.3784 34.3682 41.9322 34.3682 52.4765C34.3682 53.1462 34.3682 53.1462 33.6986 53.1462C32.2838 53.1462 30.8691 53.1273 29.4544 53.1556C28.9923 53.165 28.8791 53.0141 28.8791 52.5614C28.8885 45.2049 28.8885 37.8484 28.8885 30.4918C28.8885 30.2938 28.8885 30.0957 28.8885 29.8977C28.8508 29.8882 28.8131 29.8694 28.7753 29.8599C28.6716 30.0203 28.549 30.1712 28.4547 30.3315C25.3046 35.566 22.1545 40.8004 19.0138 46.0443C18.7969 46.4121 18.5517 46.5725 18.1178 46.5536C17.3633 46.5159 16.6088 46.5253 15.8543 46.5536C15.5242 46.563 15.345 46.4404 15.1846 46.1575C12.1005 40.8287 9.00703 35.4999 5.91352 30.1806C5.79091 29.9637 5.64001 29.7656 5.49853 29.5487C5.45138 29.5676 5.40422 29.577 5.35706 29.5958C5.34763 29.7845 5.32877 29.9825 5.32877 30.1712C5.32877 37.622 5.32877 45.0729 5.32877 52.5237C5.32877 53.1367 5.32877 53.1462 4.70629 53.1462C3.31044 53.1462 1.90515 53.1462 0.509298 53.1462C0.339532 53.1462 0.169766 53.1745 0 53.1839C0 42.1774 0 31.1803 0 20.1738C1.54676 20.1738 3.08408 20.1738 4.62141 20.1738C4.71572 20.353 4.80061 20.5417 4.90435 20.7114C8.82784 26.9173 12.7513 33.1326 16.6748 39.3385C16.7785 39.4989 16.8823 39.6403 17.0521 39.8761C17.2407 39.6498 17.4199 39.48 17.5425 39.2819C20.5228 34.6134 23.5126 29.9448 26.4835 25.2762C27.5587 23.5786 28.6244 21.8809 29.6996 20.1833C31.2653 20.1833 32.8309 20.1833 34.4059 20.1833Z" fill="#FBF6EF"/>
<path d="M93.7297 20.1831C93.8145 20.2397 93.8994 20.334 93.9937 20.334C95.6254 20.3434 97.2193 20.5792 98.7189 21.2394C102.718 22.9937 105.161 26.0117 105.859 30.3313C106.868 36.6221 102.539 42.5073 96.295 43.6014C95.2859 43.7806 94.239 43.7994 93.2015 43.8089C90.5324 43.8372 87.8539 43.8183 85.1848 43.8183C84.9961 43.8183 84.8075 43.8183 84.534 43.8183C84.534 44.0258 84.534 44.205 84.534 44.3842C84.534 47.1193 84.5246 49.8544 84.5434 52.5896C84.5434 53.0517 84.402 53.1743 83.9587 53.1649C82.5251 53.1366 81.101 53.1554 79.6674 53.1554C79.0543 53.1554 79.0543 53.1554 79.0543 52.5235C79.0543 41.9603 79.0543 31.4065 79.0543 20.8433C79.0543 20.6264 79.026 20.4095 79.0166 20.1925C83.921 20.1831 88.8253 20.1831 93.7297 20.1831ZM84.3737 38.7725C84.5529 38.7819 84.6943 38.8008 84.8264 38.8008C88.0991 38.8008 91.3624 38.8008 94.6351 38.8008C94.7954 38.8008 94.9463 38.8008 95.1067 38.7819C98.983 38.2066 101.539 34.5472 100.737 30.718C100.002 27.2284 96.9081 25.361 94.2295 25.4081C91.136 25.4553 88.0331 25.4176 84.9396 25.4176C84.7604 25.4176 84.5717 25.4176 84.3737 25.4176C84.3737 29.8975 84.3737 34.3114 84.3737 38.7725Z" fill="#FBF6EF"/>
<path d="M59.5874 20.1831C59.7006 20.4849 59.7949 20.8056 59.9364 21.098C63.4449 28.8317 66.9628 36.5655 70.4713 44.2993C71.7257 47.0533 72.98 49.8167 74.225 52.5801C74.291 52.731 74.357 52.8914 74.4419 53.1083C67.1137 53.1083 59.842 53.1083 52.4949 53.1083C52.7024 52.7027 52.9005 52.3255 53.0891 51.9577C53.6267 50.9296 54.1549 49.8922 54.7208 48.8736C54.7962 48.7321 55.0509 48.6284 55.2301 48.6284C58.4179 48.6189 61.6151 48.6189 64.803 48.6189C65.3972 48.6189 65.9913 48.6189 66.7081 48.6189C63.4071 41.1586 60.1438 33.7927 56.8334 26.3041C56.6919 26.5493 56.5976 26.6719 56.541 26.8228C52.9476 35.1037 49.3731 43.3939 45.7703 51.6653C45.0064 53.429 45.4308 53.1272 43.5445 53.146C42.2712 53.1554 40.998 53.146 39.7248 53.146C39.5739 53.146 39.423 53.146 39.1777 53.146C39.5361 52.3538 39.8474 51.637 40.168 50.9296C44.6668 40.8851 49.1656 30.8406 53.655 20.7961C53.7399 20.5981 53.7776 20.3906 53.8436 20.1831C55.7488 20.1831 57.6728 20.1831 59.5874 20.1831Z" fill="#FBF6EF"/>
<path d="M140.227 20.1831C139.057 21.9751 137.888 23.7576 136.718 25.5402C134.294 29.209 131.87 32.8873 129.437 36.5467C129.211 36.8862 129.211 37.122 129.456 37.4521C133.106 42.4885 136.737 47.5437 140.378 52.5896C140.472 52.731 140.566 52.8725 140.708 53.0894C140.5 53.1177 140.368 53.146 140.246 53.146C138.567 53.146 136.879 53.1649 135.2 53.1366C134.983 53.1366 134.681 52.9763 134.549 52.7971C131.474 48.5812 128.409 44.3653 125.382 40.1212C124.985 39.5742 124.608 39.3478 123.929 39.3667C122.203 39.4138 120.468 39.3855 118.742 39.3855C118.553 39.3855 118.374 39.3855 118.119 39.3855C118.119 39.6308 118.119 39.8382 118.119 40.0363C118.119 44.2144 118.11 48.402 118.129 52.5801C118.129 53.0234 118.016 53.1743 117.553 53.1649C116.139 53.1366 114.724 53.1366 113.309 53.1649C112.847 53.1743 112.725 53.0328 112.725 52.5801C112.734 41.998 112.734 31.4254 112.734 20.8433C112.734 20.6264 112.706 20.4095 112.696 20.1925C114.517 20.1925 116.346 20.1925 118.167 20.1925C118.148 20.3151 118.129 20.4378 118.129 20.5604C118.129 25.0875 118.129 29.6146 118.129 34.1416C118.129 34.2737 118.157 34.4057 118.167 34.5661C118.402 34.5661 118.591 34.5661 118.77 34.5661C120.722 34.5661 122.665 34.5472 124.618 34.5755C125.051 34.5849 125.297 34.4246 125.523 34.0756C128.466 29.5768 131.418 25.0875 134.37 20.5981C134.455 20.466 134.511 20.3246 134.577 20.1831C136.454 20.1831 138.34 20.1831 140.227 20.1831Z" fill="#FBF6EF"/>
<path d="M10.5636 12.723C9.894 13.0437 9.24323 13.27 8.61133 13.4115C7.97942 13.553 7.29092 13.619 6.55527 13.619C4.53694 13.619 2.95246 13.0343 1.80182 11.8553C0.660613 10.6858 0.0947266 9.07305 0.0947266 7.017C0.0947266 4.94208 0.726633 3.25385 1.99045 1.95231C3.25426 0.65077 4.9142 0 6.95139 0C7.62102 0 8.23407 0.0565887 8.79052 0.169766C9.34698 0.282943 9.91286 0.462141 10.4882 0.707359L9.75253 2.53706C9.29039 2.339 8.84711 2.19753 8.40383 2.11264C7.96999 2.02776 7.48898 1.9806 6.97968 1.9806C5.65928 1.9806 4.57466 2.42388 3.72583 3.30101C2.877 4.17813 2.44316 5.37593 2.44316 6.88496C2.44316 8.36569 2.82985 9.53519 3.61266 10.3935C4.39547 11.2517 5.45179 11.6761 6.78162 11.6761C7.2249 11.6761 7.68704 11.6195 8.17748 11.4969C8.66791 11.3838 9.16778 11.1951 9.68651 10.931L10.5636 12.723Z" fill="white"/>
<path d="M24.6925 2.11285H20.9011V13.4023H18.6658V2.11285H14.8838V0.226562H24.6925V2.11285Z" fill="white"/>
<path d="M31.303 0.226228L34.255 6.31894C34.3399 6.48871 34.4154 6.64904 34.472 6.79995C34.5285 6.95085 34.5851 7.12062 34.6229 7.29981H34.6417C34.6889 7.13005 34.736 6.97915 34.7832 6.81881C34.8304 6.66791 34.8869 6.49814 34.953 6.31894L37.2165 0.216797H39.5838L35.7452 9.68597C35.1605 11.1384 34.5568 12.157 33.9249 12.7512C33.293 13.3359 32.5196 13.6377 31.5859 13.6377C31.1992 13.6377 30.8503 13.6 30.5485 13.534C30.2467 13.468 29.9354 13.3548 29.6242 13.185L30.1241 11.4025C30.3504 11.5062 30.5673 11.5817 30.7748 11.6288C30.9823 11.676 31.2087 11.6949 31.4633 11.6949C31.9066 11.6949 32.2839 11.5251 32.614 11.1856C32.9346 10.846 33.2647 10.2802 33.576 9.47848L28.7471 0.226228H31.303Z" fill="white"/>
<path d="M43.3379 16.1751V11.45H44.498C45.0356 10.422 45.4222 9.25246 45.6675 7.94149C45.9127 6.63052 46.0447 5.16864 46.0447 3.54643V0.226562H54.4387V11.45H56.2684V16.1751H54.2218V13.4117H45.3657V16.1751H43.3379ZM46.7898 11.45H52.2223V2.14115H48.1196V3.75392C48.1196 5.395 48.0159 6.84744 47.799 8.12069C47.5915 9.39393 47.2519 10.5068 46.7898 11.45Z" fill="white"/>
<path d="M61.9844 13.4117V0.226562H64.1913V8.35647C64.1913 8.77145 64.1913 9.09212 64.1819 9.33734C64.1725 9.58256 64.1536 9.87493 64.1253 10.2333H64.163C64.2479 10.073 64.3328 9.93152 64.4083 9.80891C64.4837 9.6863 64.6063 9.50711 64.7667 9.28075L71.0291 0.226562H73.2455V13.4117H71.0386V5.27239C71.0386 4.86683 71.0386 4.54617 71.048 4.30095C71.0574 4.05573 71.0763 3.75392 71.1046 3.39553H71.0669C70.982 3.55586 70.8971 3.69734 70.8216 3.81994C70.7462 3.94255 70.6236 4.12175 70.4727 4.34811L64.2102 13.4023H61.9844V13.4117Z" fill="white"/>
<path d="M88.288 13.4114H86.0339V8.23353H84.7041C84.2891 8.23353 83.9307 8.375 83.61 8.66738C83.2894 8.95975 83.0159 9.37473 82.7895 9.90289L81.2805 13.4114H78.668L80.5448 9.44075C80.7618 8.97861 81.0258 8.59192 81.3371 8.27125C81.6389 7.95058 81.9784 7.73366 82.3274 7.61105V7.57333C81.3842 7.36583 80.658 6.96028 80.1487 6.34724C79.6394 5.73419 79.3942 4.97968 79.3942 4.06483C79.3942 2.89533 79.7997 1.96161 80.6203 1.26369C81.4408 0.56576 82.5915 0.216797 84.0911 0.216797H88.288V13.4114ZM86.0339 6.46042V2.0465H84.3268C83.5157 2.0465 82.8838 2.23513 82.4405 2.60295C81.9973 2.97078 81.7709 3.50837 81.7709 4.19687C81.7709 4.92309 81.9973 5.47955 82.45 5.86623C82.9027 6.26236 83.544 6.45098 84.3646 6.45098H86.0339V6.46042Z" fill="white"/>
<path d="M113.508 13.4117H110.603L106.114 7.58309C106.038 7.48878 105.972 7.39446 105.916 7.30015C105.859 7.20583 105.802 7.10209 105.765 6.98891H105.718V13.4117H103.482V0.226562H105.718V6.37587H105.765C105.802 6.30041 105.85 6.21553 105.916 6.12122C105.972 6.0269 106.048 5.91373 106.123 5.79112L110.424 0.226562H113.084L107.972 6.48904L113.508 13.4117Z" fill="white"/>
<path d="M119.695 0.226228L122.647 6.31894C122.732 6.48871 122.807 6.64904 122.864 6.79995C122.92 6.95085 122.977 7.12062 123.014 7.29981H123.033C123.08 7.13005 123.128 6.97915 123.175 6.81881C123.222 6.66791 123.279 6.49814 123.345 6.31894L125.608 0.216797H127.975L124.137 9.68597C123.552 11.1384 122.948 12.157 122.317 12.7512C121.685 13.3359 120.911 13.6377 119.978 13.6377C119.591 13.6377 119.242 13.6 118.94 13.534C118.638 13.468 118.327 13.3548 118.016 13.185L118.516 11.4025C118.742 11.5062 118.959 11.5817 119.166 11.6288C119.374 11.676 119.6 11.6949 119.855 11.6949C120.298 11.6949 120.675 11.5251 121.006 11.1856C121.326 10.846 121.656 10.2802 121.968 9.47848L117.139 0.216797H119.695V0.226228Z" fill="white"/>
<path d="M143.029 13.4114H140.35L137.681 8.72396C137.634 8.64851 137.587 8.54477 137.539 8.41273C137.492 8.28069 137.445 8.12978 137.398 7.95058H137.36C137.323 8.0449 137.285 8.14864 137.228 8.28069C137.181 8.41273 137.115 8.56363 137.04 8.74283L134.333 13.402H131.626L135.946 6.79052L131.984 0.216797H134.729L137.021 4.51754C137.096 4.66844 137.181 4.82877 137.247 5.00797C137.323 5.17774 137.389 5.35694 137.455 5.53613H137.492C137.558 5.36637 137.634 5.1966 137.709 5.0174C137.785 4.84764 137.87 4.66844 137.954 4.47981L140.416 0.216797H142.934L138.888 6.75279L143.029 13.4114Z" fill="white"/>
<path d="M158.92 13.4117H156.675V7.7057H150.516V13.4023H148.281V0.226562H150.516V5.76282H156.675V0.226562H158.92V13.4117Z" fill="white"/>
<path d="M165.645 13.4117V0.226562H167.851V8.35647C167.851 8.77145 167.851 9.09212 167.842 9.33734C167.833 9.58256 167.814 9.87493 167.785 10.2333H167.823C167.908 10.073 167.993 9.93152 168.068 9.80891C168.144 9.6863 168.266 9.50711 168.427 9.28075L174.689 0.226562H176.906V13.4117H174.699V5.27239C174.699 4.86683 174.699 4.54617 174.708 4.30095C174.718 4.05573 174.736 3.75392 174.765 3.39553H174.727C174.642 3.55586 174.557 3.69734 174.482 3.81994C174.406 3.94255 174.284 4.12175 174.133 4.34811L167.87 13.4023H165.645V13.4117Z" fill="white"/>
</svg>
